<svg width="23" height="39" viewBox="0 0 23 39" fill="none" xmlns="http://www.w3.org/2000/svg">
<path d="M19.6869 0L3.31345 0C1.73525 0 0.450195 1.28505 0.450195 2.86325L0.450195 36.1361C0.450195 37.715 1.73525 39 3.31345 39H19.6863C21.2652 39 22.5502 37.715 22.5502 36.1367L22.5502 2.86325C22.5502 1.28505 21.2652 0 19.6869 0ZM1.7502 5.2L21.2502 5.2V29.9H1.7502L1.7502 5.2ZM3.31345 1.3L19.6863 1.3C20.5488 1.3 21.2502 2.00135 21.2502 2.86325V3.9L1.7502 3.9V2.86325C1.7502 2.00135 2.45155 1.3 3.31345 1.3ZM19.6869 37.7H3.31345C2.45155 37.7 1.7502 36.9986 1.7502 36.1367L1.7502 31.2H21.2502L21.2502 36.1367C21.2502 36.9986 20.5488 37.7 19.6869 37.7Z" fill="#9A9A9A"/>
</svg>
